<?xml version="1.0" encoding="UTF-8" standalone="no"?>
<!DOCTYPE svg PUBLIC "-//W3C//DTD SVG 1.1//EN"
 "http://www.w3.org/Graphics/SVG/1.1/DTD/svg11.dtd">
<!-- Generated by graphviz version 2.40.1 (20161225.0304)
 -->
<!-- Title: alloc.h Pages: 1 -->
<svg width="302pt" height="140pt"
 viewBox="0.00 0.00 302.38 140.00" xmlns="http://www.w3.org/2000/svg" xmlns:xlink="http://www.w3.org/1999/xlink">
<g id="graph0" class="graph" transform="scale(1 1) rotate(0) translate(4 136)">
<title>alloc.h</title>
<!-- Node0 -->
<g id="node1" class="node">
<title>Node0</title>
<polygon fill="#bfbfbf" stroke="#000000" points="84.3775,-112.5 84.3775,-131.5 133.3775,-131.5 133.3775,-112.5 84.3775,-112.5"/>
<text text-anchor="middle" x="108.8775" y="-119.5" font-family="Helvetica,sans-Serif" font-size="10.00" fill="#000000">alloc.h</text>
</g>
<!-- Node1 -->
<g id="node2" class="node">
<title>Node1</title>
<polygon fill="none" stroke="#bfbfbf" points="44.8775,-.5 44.8775,-19.5 100.8775,-19.5 100.8775,-.5 44.8775,-.5"/>
<text text-anchor="middle" x="72.8775" y="-7.5" font-family="Helvetica,sans-Serif" font-size="10.00" fill="#000000">stddef.h</text>
</g>
<!-- Node0&#45;&gt;Node1 -->
<g id="edge1" class="edge">
<title>Node0&#45;&gt;Node1</title>
<path fill="none" stroke="#191970" d="M83.9386,-118.8642C58.8795,-114.2393 21.5177,-102.9869 3.8775,-76 -9.6544,-55.2983 16.0221,-36.3094 39.8023,-24.0682"/>
<polygon fill="#191970" stroke="#191970" points="41.6113,-27.0806 49.0759,-19.5619 38.5518,-20.7846 41.6113,-27.0806"/>
</g>
<!-- Node2 -->
<g id="node3" class="node">
<title>Node2</title>
<g id="a_node3"><a xlink:href="fsb__allocator_8h.html" target="_top" xlink:title="Provides a fixed&#45;size block memory allocator. ">
<polygon fill="none" stroke="#000000" points="12.8775,-56.5 12.8775,-75.5 100.8775,-75.5 100.8775,-56.5 12.8775,-56.5"/>
<text text-anchor="middle" x="56.8775" y="-63.5" font-family="Helvetica,sans-Serif" font-size="10.00" fill="#000000">fsb_allocator.h</text>
</a>
</g>
</g>
<!-- Node0&#45;&gt;Node2 -->
<g id="edge2" class="edge">
<title>Node0&#45;&gt;Node2</title>
<path fill="none" stroke="#191970" d="M99.8198,-112.2455C92.3633,-104.2155 81.6141,-92.6394 72.7358,-83.0781"/>
<polygon fill="#191970" stroke="#191970" points="75.2007,-80.589 65.8314,-75.6427 70.0712,-85.3522 75.2007,-80.589"/>
</g>
<!-- Node3 -->
<g id="node4" class="node">
<title>Node3</title>
<g id="a_node4"><a xlink:href="buddy__alloc_8h.html" target="_top" xlink:title="Dynamic memory allocation and freeing. ">
<polygon fill="none" stroke="#000000" points="118.8775,-56.5 118.8775,-75.5 202.8775,-75.5 202.8775,-56.5 118.8775,-56.5"/>
<text text-anchor="middle" x="160.8775" y="-63.5" font-family="Helvetica,sans-Serif" font-size="10.00" fill="#000000">buddy_alloc.h</text>
</a>
</g>
</g>
<!-- Node0&#45;&gt;Node3 -->
<g id="edge3" class="edge">
<title>Node0&#45;&gt;Node3</title>
<path fill="none" stroke="#191970" d="M117.9352,-112.2455C125.3916,-104.2155 136.1409,-92.6394 145.0192,-83.0781"/>
<polygon fill="#191970" stroke="#191970" points="147.6838,-85.3522 151.9236,-75.6427 142.5542,-80.589 147.6838,-85.3522"/>
</g>
<!-- Node4 -->
<g id="node5" class="node">
<title>Node4</title>
<g id="a_node5"><a xlink:href="attributes_8h.html" target="_top" xlink:title="Provides common useful compiler attributes. ">
<polygon fill="none" stroke="#000000" points="221.3775,-56.5 221.3775,-75.5 294.3775,-75.5 294.3775,-56.5 221.3775,-56.5"/>
<text text-anchor="middle" x="257.8775" y="-63.5" font-family="Helvetica,sans-Serif" font-size="10.00" fill="#000000">attributes.h</text>
</a>
</g>
</g>
<!-- Node0&#45;&gt;Node4 -->
<g id="edge5" class="edge">
<title>Node0&#45;&gt;Node4</title>
<path fill="none" stroke="#191970" d="M133.4818,-112.7527C157.8487,-103.5947 195.3952,-89.4833 222.8663,-79.1586"/>
<polygon fill="#191970" stroke="#191970" points="224.3589,-82.3367 232.4882,-75.5423 221.8962,-75.7842 224.3589,-82.3367"/>
</g>
<!-- Node3&#45;&gt;Node1 -->
<g id="edge4" class="edge">
<title>Node3&#45;&gt;Node1</title>
<path fill="none" stroke="#191970" d="M145.5491,-56.2455C132.0472,-47.6534 112.1653,-35.0014 96.6089,-25.1018"/>
<polygon fill="#191970" stroke="#191970" points="98.346,-22.0587 88.0303,-19.6427 94.5878,-27.9643 98.346,-22.0587"/>
</g>
</g>
</svg>
