<?xml version="1.0" encoding="UTF-8" standalone="no"?>
<!DOCTYPE svg PUBLIC "-//W3C//DTD SVG 1.1//EN"
 "http://www.w3.org/Graphics/SVG/1.1/DTD/svg11.dtd">
<!-- Generated by graphviz version 2.40.1 (20161225.0304)
 -->
<!-- Title: defs.h Pages: 1 -->
<svg width="342pt" height="84pt"
 viewBox="0.00 0.00 342.00 84.00" xmlns="http://www.w3.org/2000/svg" xmlns:xlink="http://www.w3.org/1999/xlink">
<g id="graph0" class="graph" transform="scale(1 1) rotate(0) translate(4 80)">
<title>defs.h</title>
<!-- Node0 -->
<g id="node1" class="node">
<title>Node0</title>
<polygon fill="#bfbfbf" stroke="#000000" points="131,-56.5 131,-75.5 178,-75.5 178,-56.5 131,-56.5"/>
<text text-anchor="middle" x="154.5" y="-63.5" font-family="Helvetica,sans-Serif" font-size="10.00" fill="#000000">defs.h</text>
</g>
<!-- Node1 -->
<g id="node2" class="node">
<title>Node1</title>
<g id="a_node2"><a xlink:href="sysdef_8h.html" target="_top" xlink:title="Provides useful system abstractions. ">
<polygon fill="none" stroke="#000000" points="0,-.5 0,-19.5 57,-19.5 57,-.5 0,-.5"/>
<text text-anchor="middle" x="28.5" y="-7.5" font-family="Helvetica,sans-Serif" font-size="10.00" fill="#000000">sysdef.h</text>
</a>
</g>
</g>
<!-- Node0&#45;&gt;Node1 -->
<g id="edge1" class="edge">
<title>Node0&#45;&gt;Node1</title>
<path fill="none" stroke="#191970" d="M132.8398,-56.3733C112.5228,-47.3435 81.936,-33.7494 59.125,-23.6111"/>
<polygon fill="#191970" stroke="#191970" points="60.4372,-20.3642 49.8775,-19.5011 57.5941,-26.7609 60.4372,-20.3642"/>
</g>
<!-- Node2 -->
<g id="node3" class="node">
<title>Node2</title>
<polygon fill="none" stroke="#bfbfbf" points="75.5,-.5 75.5,-19.5 141.5,-19.5 141.5,-.5 75.5,-.5"/>
<text text-anchor="middle" x="108.5" y="-7.5" font-family="Helvetica,sans-Serif" font-size="10.00" fill="#000000">dpufault.h</text>
</g>
<!-- Node0&#45;&gt;Node2 -->
<g id="edge2" class="edge">
<title>Node0&#45;&gt;Node2</title>
<path fill="none" stroke="#191970" d="M146.4874,-56.2455C140.0232,-48.3761 130.7615,-37.101 123.0017,-27.6542"/>
<polygon fill="#191970" stroke="#191970" points="125.4727,-25.1484 116.4208,-19.6427 120.0636,-29.5916 125.4727,-25.1484"/>
</g>
<!-- Node3 -->
<g id="node4" class="node">
<title>Node3</title>
<polygon fill="none" stroke="#bfbfbf" points="160,-.5 160,-19.5 243,-19.5 243,-.5 160,-.5"/>
<text text-anchor="middle" x="201.5" y="-7.5" font-family="Helvetica,sans-Serif" font-size="10.00" fill="#000000">macro_utils.h</text>
</g>
<!-- Node0&#45;&gt;Node3 -->
<g id="edge3" class="edge">
<title>Node0&#45;&gt;Node3</title>
<path fill="none" stroke="#191970" d="M162.6868,-56.2455C169.3589,-48.2958 178.9479,-36.8706 186.9253,-27.3656"/>
<polygon fill="#191970" stroke="#191970" points="189.6592,-29.5525 193.407,-19.6427 184.2974,-25.0524 189.6592,-29.5525"/>
</g>
<!-- Node4 -->
<g id="node5" class="node">
<title>Node4</title>
<g id="a_node5"><a xlink:href="attributes_8h.html" target="_top" xlink:title="Provides common useful compiler attributes. ">
<polygon fill="none" stroke="#000000" points="261,-.5 261,-19.5 334,-19.5 334,-.5 261,-.5"/>
<text text-anchor="middle" x="297.5" y="-7.5" font-family="Helvetica,sans-Serif" font-size="10.00" fill="#000000">attributes.h</text>
</a>
</g>
</g>
<!-- Node0&#45;&gt;Node4 -->
<g id="edge4" class="edge">
<title>Node0&#45;&gt;Node4</title>
<path fill="none" stroke="#191970" d="M178.1135,-56.7527C201.3263,-47.6624 237.0016,-33.6917 263.3122,-23.3882"/>
<polygon fill="#191970" stroke="#191970" points="264.8568,-26.5422 272.892,-19.6367 262.3042,-20.0242 264.8568,-26.5422"/>
</g>
</g>
</svg>
