<?xml version="1.0" encoding="UTF-8" standalone="no"?>
<!DOCTYPE svg PUBLIC "-//W3C//DTD SVG 1.1//EN"
 "http://www.w3.org/Graphics/SVG/1.1/DTD/svg11.dtd">
<!-- Generated by graphviz version 2.40.1 (20161225.0304)
 -->
<!-- Title: seqread.h Pages: 1 -->
<svg width="291pt" height="140pt"
 viewBox="0.00 0.00 290.50 140.00" xmlns="http://www.w3.org/2000/svg" xmlns:xlink="http://www.w3.org/1999/xlink">
<g id="graph0" class="graph" transform="scale(1 1) rotate(0) translate(4 136)">
<title>seqread.h</title>
<!-- Node0 -->
<g id="node1" class="node">
<title>Node0</title>
<polygon fill="#bfbfbf" stroke="#000000" points="68,-112.5 68,-131.5 133,-131.5 133,-112.5 68,-112.5"/>
<text text-anchor="middle" x="100.5" y="-119.5" font-family="Helvetica,sans-Serif" font-size="10.00" fill="#000000">seqread.h</text>
</g>
<!-- Node1 -->
<g id="node2" class="node">
<title>Node1</title>
<polygon fill="none" stroke="#bfbfbf" points="0,-.5 0,-19.5 53,-19.5 53,-.5 0,-.5"/>
<text text-anchor="middle" x="26.5" y="-7.5" font-family="Helvetica,sans-Serif" font-size="10.00" fill="#000000">stdint.h</text>
</g>
<!-- Node0&#45;&gt;Node1 -->
<g id="edge1" class="edge">
<title>Node0&#45;&gt;Node1</title>
<path fill="none" stroke="#191970" d="M92.0707,-112.491C84.2321,-103.4317 72.4506,-89.2482 63.5,-76 53.1863,-60.7342 43.0681,-42.3858 36.0268,-28.9144"/>
<polygon fill="#191970" stroke="#191970" points="38.9731,-26.9901 31.2897,-19.6952 32.7469,-30.1893 38.9731,-26.9901"/>
</g>
<!-- Node2 -->
<g id="node3" class="node">
<title>Node2</title>
<g id="a_node3"><a xlink:href="mram_8h.html" target="_top" xlink:title="MRAM Transfer Management. ">
<polygon fill="none" stroke="#000000" points="73,-56.5 73,-75.5 128,-75.5 128,-56.5 73,-56.5"/>
<text text-anchor="middle" x="100.5" y="-63.5" font-family="Helvetica,sans-Serif" font-size="10.00" fill="#000000">mram.h</text>
</a>
</g>
</g>
<!-- Node0&#45;&gt;Node2 -->
<g id="edge2" class="edge">
<title>Node0&#45;&gt;Node2</title>
<path fill="none" stroke="#191970" d="M100.5,-112.2455C100.5,-104.9382 100.5,-94.6944 100.5,-85.7046"/>
<polygon fill="#191970" stroke="#191970" points="104.0001,-85.6426 100.5,-75.6427 97.0001,-85.6427 104.0001,-85.6426"/>
</g>
<!-- Node5 -->
<g id="node6" class="node">
<title>Node5</title>
<polygon fill="none" stroke="#bfbfbf" points="146,-56.5 146,-75.5 229,-75.5 229,-56.5 146,-56.5"/>
<text text-anchor="middle" x="187.5" y="-63.5" font-family="Helvetica,sans-Serif" font-size="10.00" fill="#000000">macro_utils.h</text>
</g>
<!-- Node0&#45;&gt;Node5 -->
<g id="edge6" class="edge">
<title>Node0&#45;&gt;Node5</title>
<path fill="none" stroke="#191970" d="M115.6542,-112.2455C129.0027,-103.6534 148.6586,-91.0014 164.0383,-81.1018"/>
<polygon fill="#191970" stroke="#191970" points="166.0051,-83.9982 172.5194,-75.6427 162.2164,-78.1121 166.0051,-83.9982"/>
</g>
<!-- Node2&#45;&gt;Node1 -->
<g id="edge3" class="edge">
<title>Node2&#45;&gt;Node1</title>
<path fill="none" stroke="#191970" d="M87.6102,-56.2455C76.5746,-47.8943 60.4708,-35.7076 47.5647,-25.9408"/>
<polygon fill="#191970" stroke="#191970" points="49.3283,-22.8862 39.2421,-19.6427 45.1041,-28.4681 49.3283,-22.8862"/>
</g>
<!-- Node3 -->
<g id="node4" class="node">
<title>Node3</title>
<g id="a_node4"><a xlink:href="attributes_8h.html" target="_top" xlink:title="Provides common useful compiler attributes. ">
<polygon fill="none" stroke="#000000" points="71,-.5 71,-19.5 144,-19.5 144,-.5 71,-.5"/>
<text text-anchor="middle" x="107.5" y="-7.5" font-family="Helvetica,sans-Serif" font-size="10.00" fill="#000000">attributes.h</text>
</a>
</g>
</g>
<!-- Node2&#45;&gt;Node3 -->
<g id="edge4" class="edge">
<title>Node2&#45;&gt;Node3</title>
<path fill="none" stroke="#191970" d="M101.7193,-56.2455C102.6327,-48.9382 103.9132,-38.6944 105.0369,-29.7046"/>
<polygon fill="#191970" stroke="#191970" points="108.5272,-29.9996 106.2947,-19.6427 101.5813,-29.1313 108.5272,-29.9996"/>
</g>
<!-- Node4 -->
<g id="node5" class="node">
<title>Node4</title>
<g id="a_node5"><a xlink:href="dpu__characteristics_8h.html" target="_top" xlink:title="Provides a few constants used internally. ">
<polygon fill="none" stroke="#000000" points="162.5,-.5 162.5,-19.5 282.5,-19.5 282.5,-.5 162.5,-.5"/>
<text text-anchor="middle" x="222.5" y="-7.5" font-family="Helvetica,sans-Serif" font-size="10.00" fill="#000000">dpu_characteristics.h</text>
</a>
</g>
</g>
<!-- Node2&#45;&gt;Node4 -->
<g id="edge5" class="edge">
<title>Node2&#45;&gt;Node4</title>
<path fill="none" stroke="#191970" d="M121.4725,-56.3733C141.0567,-47.3838 170.4961,-33.8706 192.551,-23.7471"/>
<polygon fill="#191970" stroke="#191970" points="194.1729,-26.8538 201.8011,-19.5011 191.2527,-20.4919 194.1729,-26.8538"/>
</g>
</g>
</svg>
