<?xml version="1.0" encoding="UTF-8" standalone="no"?>
<!DOCTYPE svg PUBLIC "-//W3C//DTD SVG 1.1//EN"
 "http://www.w3.org/Graphics/SVG/1.1/DTD/svg11.dtd">
<!-- Generated by graphviz version 2.40.1 (20161225.0304)
 -->
<!-- Title: process_inputs_each_tasklet Pages: 1 -->
<svg width="275pt" height="294pt"
 viewBox="0.00 0.00 275.00 294.00" xmlns="http://www.w3.org/2000/svg" xmlns:xlink="http://www.w3.org/1999/xlink">
<g id="graph0" class="graph" transform="scale(1 1) rotate(0) translate(4 290)">
<title>process_inputs_each_tasklet</title>
<!-- Node29 -->
<g id="node1" class="node">
<title>Node29</title>
<polygon fill="#bfbfbf" stroke="#000000" points="0,-128 0,-158 118,-158 118,-128 0,-128"/>
<text text-anchor="start" x="8" y="-146" font-family="Helvetica,sans-Serif" font-size="10.00" fill="#000000">process_inputs_each</text>
<text text-anchor="middle" x="59" y="-135" font-family="Helvetica,sans-Serif" font-size="10.00" fill="#000000">_tasklet</text>
</g>
<!-- Node30 -->
<g id="node2" class="node">
<title>Node30</title>
<g id="a_node2"><a xlink:href="wramfifo_8h.html#a5aabd3e2ba53f59956dbba4f5452f05f" target="_top" xlink:title="is_input_fifo_empty">
<polygon fill="none" stroke="#000000" points="154,-266.5 154,-285.5 267,-285.5 267,-266.5 154,-266.5"/>
<text text-anchor="middle" x="210.5" y="-273.5" font-family="Helvetica,sans-Serif" font-size="10.00" fill="#000000">is_input_fifo_empty</text>
</a>
</g>
</g>
<!-- Node29&#45;&gt;Node30 -->
<g id="edge1" class="edge">
<title>Node29&#45;&gt;Node30</title>
<path fill="none" stroke="#191970" d="M67.7929,-158.2303C82.5718,-182.5329 114.6695,-230.0792 154,-257 156.8622,-258.9591 159.9434,-260.7309 163.1371,-262.3308"/>
<polygon fill="#191970" stroke="#191970" points="161.7859,-265.5602 172.3476,-266.3977 164.6134,-259.1566 161.7859,-265.5602"/>
</g>
<!-- Node31 -->
<g id="node3" class="node">
<title>Node31</title>
<g id="a_node3"><a xlink:href="wramfifo_8h.html#a770eca416292bb5145588aab17783d98" target="_top" xlink:title="is_output_fifo_full">
<polygon fill="none" stroke="#000000" points="158.5,-228.5 158.5,-247.5 262.5,-247.5 262.5,-228.5 158.5,-228.5"/>
<text text-anchor="middle" x="210.5" y="-235.5" font-family="Helvetica,sans-Serif" font-size="10.00" fill="#000000">is_output_fifo_full</text>
</a>
</g>
</g>
<!-- Node29&#45;&gt;Node31 -->
<g id="edge2" class="edge">
<title>Node29&#45;&gt;Node31</title>
<path fill="none" stroke="#191970" d="M74.2361,-158.0433C92.0443,-174.909 123.038,-202.1026 154,-219 157.7812,-221.0636 161.8266,-222.9584 165.9502,-224.6849"/>
<polygon fill="#191970" stroke="#191970" points="165.0366,-228.0834 175.6265,-228.4077 167.5502,-221.5503 165.0366,-228.0834"/>
</g>
<!-- Node32 -->
<g id="node4" class="node">
<title>Node32</title>
<g id="a_node4"><a xlink:href="mutex_8h.html#ad43ee1ac1f6541ac04f2527dc8df1bd0" target="_top" xlink:title="Takes the lock on the given mutex. ">
<polygon fill="none" stroke="#000000" points="173.5,-190.5 173.5,-209.5 247.5,-209.5 247.5,-190.5 173.5,-190.5"/>
<text text-anchor="middle" x="210.5" y="-197.5" font-family="Helvetica,sans-Serif" font-size="10.00" fill="#000000">mutex_lock</text>
</a>
</g>
</g>
<!-- Node29&#45;&gt;Node32 -->
<g id="edge3" class="edge">
<title>Node29&#45;&gt;Node32</title>
<path fill="none" stroke="#191970" d="M95.3562,-158.0978C112.9746,-165.2716 134.4942,-173.8255 154,-181 159.5999,-183.0597 165.5434,-185.1554 171.3915,-187.1664"/>
<polygon fill="#191970" stroke="#191970" points="170.4716,-190.5503 181.066,-190.4495 172.7212,-183.9215 170.4716,-190.5503"/>
</g>
<!-- Node33 -->
<g id="node5" class="node">
<title>Node33</title>
<g id="a_node5"><a xlink:href="defs_8h.html#a7606206081894244bb3c1893214ceb7e" target="_top" xlink:title="Returns the current tasklet&#39;s sysname. ">
<polygon fill="none" stroke="#000000" points="194.5,-152.5 194.5,-171.5 226.5,-171.5 226.5,-152.5 194.5,-152.5"/>
<text text-anchor="middle" x="210.5" y="-159.5" font-family="Helvetica,sans-Serif" font-size="10.00" fill="#000000">me</text>
</a>
</g>
</g>
<!-- Node29&#45;&gt;Node33 -->
<g id="edge4" class="edge">
<title>Node29&#45;&gt;Node33</title>
<path fill="none" stroke="#191970" d="M118.0077,-150.4003C140.9581,-153.2786 166.067,-156.4275 184.3248,-158.7173"/>
<polygon fill="#191970" stroke="#191970" points="184.1127,-162.218 194.4705,-159.9897 184.9838,-155.2724 184.1127,-162.218"/>
</g>
<!-- Node34 -->
<g id="node6" class="node">
<title>Node34</title>
<g id="a_node6"><a xlink:href="wramfifo_8h.html#a85c00b2c84457af01183ffe325fe2dec" target="_top" xlink:title="input_fifo_peek">
<polygon fill="none" stroke="#000000" points="164.5,-114.5 164.5,-133.5 256.5,-133.5 256.5,-114.5 164.5,-114.5"/>
<text text-anchor="middle" x="210.5" y="-121.5" font-family="Helvetica,sans-Serif" font-size="10.00" fill="#000000">input_fifo_peek</text>
</a>
</g>
</g>
<!-- Node29&#45;&gt;Node34 -->
<g id="edge5" class="edge">
<title>Node29&#45;&gt;Node34</title>
<path fill="none" stroke="#191970" d="M118.0077,-135.5997C129.8315,-134.1168 142.2281,-132.5621 153.9657,-131.0901"/>
<polygon fill="#191970" stroke="#191970" points="154.5932,-134.5389 164.0799,-129.8217 153.7221,-127.5933 154.5932,-134.5389"/>
</g>
<!-- Node35 -->
<g id="node7" class="node">
<title>Node35</title>
<g id="a_node7"><a xlink:href="wramfifo_8h.html#a02c3f71caeb9b881d857ed5a0bd814b9" target="_top" xlink:title="pops the first element of the fifo ">
<polygon fill="none" stroke="#000000" points="167.5,-76.5 167.5,-95.5 253.5,-95.5 253.5,-76.5 167.5,-76.5"/>
<text text-anchor="middle" x="210.5" y="-83.5" font-family="Helvetica,sans-Serif" font-size="10.00" fill="#000000">input_fifo_pop</text>
</a>
</g>
</g>
<!-- Node29&#45;&gt;Node35 -->
<g id="edge6" class="edge">
<title>Node29&#45;&gt;Node35</title>
<path fill="none" stroke="#191970" d="M95.3562,-127.9022C112.9746,-120.7284 134.4942,-112.1745 154,-105 159.5999,-102.9403 165.5434,-100.8446 171.3915,-98.8336"/>
<polygon fill="#191970" stroke="#191970" points="172.7212,-102.0785 181.066,-95.5505 170.4716,-95.4497 172.7212,-102.0785"/>
</g>
<!-- Node36 -->
<g id="node8" class="node">
<title>Node36</title>
<g id="a_node8"><a xlink:href="mutex_8h.html#addf1dc46f6dd1ad595c5ad573cc01974" target="_top" xlink:title="Releases the lock on the given mutex. ">
<polygon fill="none" stroke="#000000" points="167.5,-38.5 167.5,-57.5 253.5,-57.5 253.5,-38.5 167.5,-38.5"/>
<text text-anchor="middle" x="210.5" y="-45.5" font-family="Helvetica,sans-Serif" font-size="10.00" fill="#000000">mutex_unlock</text>
</a>
</g>
</g>
<!-- Node29&#45;&gt;Node36 -->
<g id="edge7" class="edge">
<title>Node29&#45;&gt;Node36</title>
<path fill="none" stroke="#191970" d="M74.2361,-127.9567C92.0443,-111.091 123.038,-83.8974 154,-67 157.7812,-64.9364 161.8266,-63.0416 165.9502,-61.3151"/>
<polygon fill="#191970" stroke="#191970" points="167.5502,-64.4497 175.6265,-57.5923 165.0366,-57.9166 167.5502,-64.4497"/>
</g>
<!-- Node37 -->
<g id="node9" class="node">
<title>Node37</title>
<g id="a_node9"><a xlink:href="wramfifo_8h.html#a702f45cc66114042a782eb143688cb17" target="_top" xlink:title="pushes a new element in the fifo ">
<polygon fill="none" stroke="#000000" points="161.5,-.5 161.5,-19.5 259.5,-19.5 259.5,-.5 161.5,-.5"/>
<text text-anchor="middle" x="210.5" y="-7.5" font-family="Helvetica,sans-Serif" font-size="10.00" fill="#000000">output_fifo_push</text>
</a>
</g>
</g>
<!-- Node29&#45;&gt;Node37 -->
<g id="edge8" class="edge">
<title>Node29&#45;&gt;Node37</title>
<path fill="none" stroke="#191970" d="M67.7929,-127.7697C82.5718,-103.4671 114.6695,-55.9208 154,-29 156.8622,-27.0409 159.9434,-25.2691 163.1371,-23.6692"/>
<polygon fill="#191970" stroke="#191970" points="164.6134,-26.8434 172.3476,-19.6023 161.7859,-20.4398 164.6134,-26.8434"/>
</g>
</g>
</svg>
