<?xml version="1.0" encoding="UTF-8" standalone="no"?>
<!DOCTYPE svg PUBLIC "-//W3C//DTD SVG 1.1//EN"
 "http://www.w3.org/Graphics/SVG/1.1/DTD/svg11.dtd">
<!-- Generated by graphviz version 2.40.1 (20161225.0304)
 -->
<!-- Title: dpu_types.h Pages: 1 -->
<svg width="136pt" height="140pt"
 viewBox="0.00 0.00 136.00 140.00" xmlns="http://www.w3.org/2000/svg" xmlns:xlink="http://www.w3.org/1999/xlink">
<g id="graph0" class="graph" transform="scale(1 1) rotate(0) translate(4 136)">
<title>dpu_types.h</title>
<!-- Node3 -->
<g id="node1" class="node">
<title>Node3</title>
<polygon fill="#bfbfbf" stroke="#000000" points="52,-112.5 52,-131.5 128,-131.5 128,-112.5 52,-112.5"/>
<text text-anchor="middle" x="90" y="-119.5" font-family="Helvetica,sans-Serif" font-size="10.00" fill="#000000">dpu_types.h</text>
</g>
<!-- Node4 -->
<g id="node2" class="node">
<title>Node4</title>
<g id="a_node2"><a xlink:href="dpu__checkpoint_8h.html" target="_top" xlink:title="C API to create and manage DPU checkpoints. ">
<polygon fill="none" stroke="#000000" points="0,-56.5 0,-75.5 102,-75.5 102,-56.5 0,-56.5"/>
<text text-anchor="middle" x="51" y="-63.5" font-family="Helvetica,sans-Serif" font-size="10.00" fill="#000000">dpu_checkpoint.h</text>
</a>
</g>
</g>
<!-- Node3&#45;&gt;Node4 -->
<g id="edge1" class="edge">
<title>Node3&#45;&gt;Node4</title>
<path fill="none" stroke="#191970" d="M77.4092,-103.9209C70.8605,-94.5176 63.1176,-83.3997 57.7154,-75.6427"/>
<polygon fill="#191970" stroke="#191970" points="74.6196,-106.0397 83.2067,-112.2455 80.3639,-102.0392 74.6196,-106.0397"/>
</g>
<!-- Node5 -->
<g id="node3" class="node">
<title>Node5</title>
<g id="a_node3"><a xlink:href="dpu_8h.html" target="_top" xlink:title="C API to manage DPUs. ">
<polygon fill="none" stroke="#000000" points="68,-.5 68,-19.5 112,-19.5 112,-.5 68,-.5"/>
<text text-anchor="middle" x="90" y="-7.5" font-family="Helvetica,sans-Serif" font-size="10.00" fill="#000000">dpu.h</text>
</a>
</g>
</g>
<!-- Node3&#45;&gt;Node5 -->
<g id="edge3" class="edge">
<title>Node3&#45;&gt;Node5</title>
<path fill="none" stroke="#191970" d="M101.425,-103.3805C108.0874,-90.2971 114.5429,-72.2918 111,-56 108.1271,-42.7892 101.1112,-28.8263 95.9765,-19.7968"/>
<polygon fill="#191970" stroke="#191970" points="98.2567,-101.8761 96.452,-112.3161 104.3733,-105.2802 98.2567,-101.8761"/>
</g>
<!-- Node4&#45;&gt;Node5 -->
<g id="edge2" class="edge">
<title>Node4&#45;&gt;Node5</title>
<path fill="none" stroke="#191970" d="M63.5908,-47.9209C70.1395,-38.5176 77.8824,-27.3997 83.2846,-19.6427"/>
<polygon fill="#191970" stroke="#191970" points="60.6361,-46.0392 57.7933,-56.2455 66.3804,-50.0397 60.6361,-46.0392"/>
</g>
</g>
</svg>
