<?xml version="1.0" encoding="UTF-8" standalone="no"?>
<!DOCTYPE svg PUBLIC "-//W3C//DTD SVG 1.1//EN"
 "http://www.w3.org/Graphics/SVG/1.1/DTD/svg11.dtd">
<!-- Generated by graphviz version 2.40.1 (20161225.0304)
 -->
<!-- Title: dpu.h Pages: 1 -->
<svg width="928pt" height="207pt"
 viewBox="0.00 0.00 928.00 207.00" xmlns="http://www.w3.org/2000/svg" xmlns:xlink="http://www.w3.org/1999/xlink">
<g id="graph0" class="graph" transform="scale(1 1) rotate(0) translate(4 203)">
<title>dpu.h</title>
<!-- Node0 -->
<g id="node1" class="node">
<title>Node0</title>
<polygon fill="#bfbfbf" stroke="#000000" points="363.5,-179.5 363.5,-198.5 407.5,-198.5 407.5,-179.5 363.5,-179.5"/>
<text text-anchor="middle" x="385.5" y="-186.5" font-family="Helvetica,sans-Serif" font-size="10.00" fill="#000000">dpu.h</text>
</g>
<!-- Node1 -->
<g id="node2" class="node">
<title>Node1</title>
<polygon fill="none" stroke="#bfbfbf" points="0,-118 0,-137 53,-137 53,-118 0,-118"/>
<text text-anchor="middle" x="26.5" y="-125" font-family="Helvetica,sans-Serif" font-size="10.00" fill="#000000">limits.h</text>
</g>
<!-- Node0&#45;&gt;Node1 -->
<g id="edge1" class="edge">
<title>Node0&#45;&gt;Node1</title>
<path fill="none" stroke="#191970" d="M363.1509,-187.856C310.0751,-184.7023 172.6486,-173.9612 62.5,-143 60.3178,-142.3866 58.0939,-141.6704 55.8761,-140.8885"/>
<polygon fill="#191970" stroke="#191970" points="56.9284,-137.5419 46.3407,-137.1553 54.3765,-144.0601 56.9284,-137.5419"/>
</g>
<!-- Node2 -->
<g id="node3" class="node">
<title>Node2</title>
<polygon fill="none" stroke="#bfbfbf" points="71.5,-118 71.5,-137 133.5,-137 133.5,-118 71.5,-118"/>
<text text-anchor="middle" x="102.5" y="-125" font-family="Helvetica,sans-Serif" font-size="10.00" fill="#000000">stdbool.h</text>
</g>
<!-- Node0&#45;&gt;Node2 -->
<g id="edge2" class="edge">
<title>Node0&#45;&gt;Node2</title>
<path fill="none" stroke="#191970" d="M363.4048,-186.1959C320.3374,-180.429 222.3839,-165.8314 142.5,-143 139.9042,-142.2581 137.2415,-141.4155 134.5829,-140.5156"/>
<polygon fill="#191970" stroke="#191970" points="135.6938,-137.1956 125.0996,-137.0834 133.3115,-143.7778 135.6938,-137.1956"/>
</g>
<!-- Node3 -->
<g id="node4" class="node">
<title>Node3</title>
<polygon fill="none" stroke="#bfbfbf" points="151.5,-118 151.5,-137 207.5,-137 207.5,-118 151.5,-118"/>
<text text-anchor="middle" x="179.5" y="-125" font-family="Helvetica,sans-Serif" font-size="10.00" fill="#000000">stddef.h</text>
</g>
<!-- Node0&#45;&gt;Node3 -->
<g id="edge3" class="edge">
<title>Node0&#45;&gt;Node3</title>
<path fill="none" stroke="#191970" d="M363.3149,-183.3807C331.6349,-175.2202 271.7115,-159.2782 221.5,-143 218.9538,-142.1746 216.3327,-141.2907 213.7028,-140.3791"/>
<polygon fill="#191970" stroke="#191970" points="214.8536,-137.0736 204.2589,-137.011 212.5021,-143.6669 214.8536,-137.0736"/>
</g>
<!-- Node4 -->
<g id="node5" class="node">
<title>Node4</title>
<polygon fill="none" stroke="#bfbfbf" points="302,-.5 302,-19.5 355,-19.5 355,-.5 302,-.5"/>
<text text-anchor="middle" x="328.5" y="-7.5" font-family="Helvetica,sans-Serif" font-size="10.00" fill="#000000">stdint.h</text>
</g>
<!-- Node0&#45;&gt;Node4 -->
<g id="edge4" class="edge">
<title>Node0&#45;&gt;Node4</title>
<path fill="none" stroke="#191970" d="M363.2848,-184.4243C329.3876,-176.941 267.3228,-161.093 254.5,-143 226.4287,-103.3913 276.7649,-52.1315 307.4239,-26.3454"/>
<polygon fill="#191970" stroke="#191970" points="309.9348,-28.8139 315.4681,-19.7787 305.5081,-23.3912 309.9348,-28.8139"/>
</g>
<!-- Node5 -->
<g id="node6" class="node">
<title>Node5</title>
<polygon fill="none" stroke="#bfbfbf" points="263.5,-118 263.5,-137 313.5,-137 313.5,-118 263.5,-118"/>
<text text-anchor="middle" x="288.5" y="-125" font-family="Helvetica,sans-Serif" font-size="10.00" fill="#000000">stdio.h</text>
</g>
<!-- Node0&#45;&gt;Node5 -->
<g id="edge5" class="edge">
<title>Node0&#45;&gt;Node5</title>
<path fill="none" stroke="#191970" d="M370.3438,-179.3906C354.8257,-169.5519 330.4807,-154.1167 312.3716,-142.6351"/>
<polygon fill="#191970" stroke="#191970" points="313.8696,-139.4407 303.5498,-137.0419 310.1213,-145.3526 313.8696,-139.4407"/>
</g>
<!-- Node6 -->
<g id="node7" class="node">
<title>Node6</title>
<polygon fill="none" stroke="#bfbfbf" points="332,-118 332,-137 385,-137 385,-118 332,-118"/>
<text text-anchor="middle" x="358.5" y="-125" font-family="Helvetica,sans-Serif" font-size="10.00" fill="#000000">stdlib.h</text>
</g>
<!-- Node0&#45;&gt;Node6 -->
<g id="edge6" class="edge">
<title>Node0&#45;&gt;Node6</title>
<path fill="none" stroke="#191970" d="M381.2813,-179.3906C377.4204,-170.5965 371.5966,-157.3312 366.8039,-146.4145"/>
<polygon fill="#191970" stroke="#191970" points="370.0029,-144.9943 362.7782,-137.2449 363.5934,-147.8083 370.0029,-144.9943"/>
</g>
<!-- Node7 -->
<g id="node8" class="node">
<title>Node7</title>
<g id="a_node8"><a xlink:href="dpu__checkpoint_8h.html" target="_top" xlink:title="C API to create and manage DPU checkpoints. ">
<polygon fill="none" stroke="#000000" points="441.5,-118 441.5,-137 543.5,-137 543.5,-118 441.5,-118"/>
<text text-anchor="middle" x="492.5" y="-125" font-family="Helvetica,sans-Serif" font-size="10.00" fill="#000000">dpu_checkpoint.h</text>
</a>
</g>
</g>
<!-- Node0&#45;&gt;Node7 -->
<g id="edge7" class="edge">
<title>Node0&#45;&gt;Node7</title>
<path fill="none" stroke="#191970" d="M402.2188,-179.3906C419.5722,-169.4165 446.9323,-153.6908 466.9882,-142.1633"/>
<polygon fill="#191970" stroke="#191970" points="468.9728,-145.0596 475.8987,-137.0419 465.4846,-138.9907 468.9728,-145.0596"/>
</g>
<!-- Node8 -->
<g id="node9" class="node">
<title>Node8</title>
<g id="a_node9"><a xlink:href="dpu__error_8h.html" target="_top" xlink:title="Define the possible status returned by the API functions. ">
<polygon fill="none" stroke="#000000" points="378,-56.5 378,-75.5 449,-75.5 449,-56.5 378,-56.5"/>
<text text-anchor="middle" x="413.5" y="-63.5" font-family="Helvetica,sans-Serif" font-size="10.00" fill="#000000">dpu_error.h</text>
</a>
</g>
</g>
<!-- Node0&#45;&gt;Node8 -->
<g id="edge12" class="edge">
<title>Node0&#45;&gt;Node8</title>
<path fill="none" stroke="#191970" d="M387.6971,-179.3484C392.277,-159.2295 402.9236,-112.4608 409.0132,-85.7098"/>
<polygon fill="#191970" stroke="#191970" points="412.5061,-86.1342 411.3131,-75.6068 405.6807,-84.5804 412.5061,-86.1342"/>
</g>
<!-- Node9 -->
<g id="node10" class="node">
<title>Node9</title>
<g id="a_node10"><a xlink:href="dpu__types_8h.html" target="_top" xlink:title="Base DPU types in the C API. ">
<polygon fill="none" stroke="#000000" points="467.5,-56.5 467.5,-75.5 543.5,-75.5 543.5,-56.5 467.5,-56.5"/>
<text text-anchor="middle" x="505.5" y="-63.5" font-family="Helvetica,sans-Serif" font-size="10.00" fill="#000000">dpu_types.h</text>
</a>
</g>
</g>
<!-- Node0&#45;&gt;Node9 -->
<g id="edge13" class="edge">
<title>Node0&#45;&gt;Node9</title>
<path fill="none" stroke="#191970" d="M407.6686,-186.2078C448.9259,-180.5073 534.9141,-166.0849 552.5,-143 567.6292,-123.14 545.6924,-98.1567 526.9849,-82.1314"/>
<polygon fill="#191970" stroke="#191970" points="528.9878,-79.2488 519.0225,-75.6511 524.5692,-84.678 528.9878,-79.2488"/>
</g>
<!-- Node11 -->
<g id="node12" class="node">
<title>Node11</title>
<polygon fill="none" stroke="#bfbfbf" points="599.5,-118 599.5,-137 705.5,-137 705.5,-118 599.5,-118"/>
<text text-anchor="middle" x="652.5" y="-125" font-family="Helvetica,sans-Serif" font-size="10.00" fill="#000000">dpu_macro_utils.h</text>
</g>
<!-- Node0&#45;&gt;Node11 -->
<g id="edge14" class="edge">
<title>Node0&#45;&gt;Node11</title>
<path fill="none" stroke="#191970" d="M407.6989,-183.904C444.6076,-175.429 520.9262,-157.8953 585.5,-143 590.7351,-141.7924 596.2,-140.5304 601.6522,-139.2705"/>
<polygon fill="#191970" stroke="#191970" points="602.4451,-142.6795 611.3998,-137.017 600.8684,-135.8594 602.4451,-142.6795"/>
</g>
<!-- Node12 -->
<g id="node13" class="node">
<title>Node12</title>
<polygon fill="none" stroke="#bfbfbf" points="724,-118 724,-137 789,-137 789,-118 724,-118"/>
<text text-anchor="middle" x="756.5" y="-125" font-family="Helvetica,sans-Serif" font-size="10.00" fill="#000000">dpu_fifo.h</text>
</g>
<!-- Node0&#45;&gt;Node12 -->
<g id="edge15" class="edge">
<title>Node0&#45;&gt;Node12</title>
<path fill="none" stroke="#191970" d="M407.7604,-187.5425C461.3009,-183.6809 601.2334,-171.4672 714.5,-143 717.494,-142.2475 720.5699,-141.3554 723.6304,-140.3852"/>
<polygon fill="#191970" stroke="#191970" points="724.9079,-143.6472 733.2336,-137.0949 722.639,-137.0251 724.9079,-143.6472"/>
</g>
<!-- Node13 -->
<g id="node14" class="node">
<title>Node13</title>
<polygon fill="none" stroke="#bfbfbf" points="807,-112.5 807,-142.5 920,-142.5 920,-112.5 807,-112.5"/>
<text text-anchor="start" x="815" y="-130.5" font-family="Helvetica,sans-Serif" font-size="10.00" fill="#000000">dpu_bank_interface</text>
<text text-anchor="middle" x="863.5" y="-119.5" font-family="Helvetica,sans-Serif" font-size="10.00" fill="#000000">_pmc.h</text>
</g>
<!-- Node0&#45;&gt;Node13 -->
<g id="edge16" class="edge">
<title>Node0&#45;&gt;Node13</title>
<path fill="none" stroke="#191970" d="M407.574,-187.5035C468.2195,-183.1898 642.5986,-169.429 796.7425,-143.186"/>
<polygon fill="#191970" stroke="#191970" points="797.6058,-146.5888 806.865,-141.4393 796.4155,-139.6908 797.6058,-146.5888"/>
</g>
<!-- Node7&#45;&gt;Node8 -->
<g id="edge8" class="edge">
<title>Node7&#45;&gt;Node8</title>
<path fill="none" stroke="#191970" d="M480.1563,-117.8906C467.7497,-108.2324 448.4157,-93.1812 433.7587,-81.771"/>
<polygon fill="#191970" stroke="#191970" points="435.7979,-78.923 425.7571,-75.5419 431.4979,-84.4466 435.7979,-78.923"/>
</g>
<!-- Node7&#45;&gt;Node9 -->
<g id="edge9" class="edge">
<title>Node7&#45;&gt;Node9</title>
<path fill="none" stroke="#191970" d="M494.5313,-117.8906C496.3522,-109.276 499.0802,-96.3708 501.3599,-85.5858"/>
<polygon fill="#191970" stroke="#191970" points="504.7962,-86.2525 503.4401,-75.7449 497.9476,-84.8048 504.7962,-86.2525"/>
</g>
<!-- Node9&#45;&gt;Node4 -->
<g id="edge10" class="edge">
<title>Node9&#45;&gt;Node4</title>
<path fill="none" stroke="#191970" d="M475.0726,-56.3733C444.4379,-46.6809 397.1817,-31.7298 364.6534,-21.4384"/>
<polygon fill="#191970" stroke="#191970" points="365.656,-18.0846 355.066,-18.4051 363.5444,-24.7586 365.656,-18.0846"/>
</g>
<!-- Node10 -->
<g id="node11" class="node">
<title>Node10</title>
<polygon fill="none" stroke="#bfbfbf" points="466.5,-.5 466.5,-19.5 544.5,-19.5 544.5,-.5 466.5,-.5"/>
<text text-anchor="middle" x="505.5" y="-7.5" font-family="Helvetica,sans-Serif" font-size="10.00" fill="#000000">dpu_target.h</text>
</g>
<!-- Node9&#45;&gt;Node10 -->
<g id="edge11" class="edge">
<title>Node9&#45;&gt;Node10</title>
<path fill="none" stroke="#191970" d="M505.5,-56.2455C505.5,-48.9382 505.5,-38.6944 505.5,-29.7046"/>
<polygon fill="#191970" stroke="#191970" points="509.0001,-29.6426 505.5,-19.6427 502.0001,-29.6427 509.0001,-29.6426"/>
</g>
</g>
</svg>
