<?xml version="1.0" encoding="UTF-8" standalone="no"?>
<!DOCTYPE svg PUBLIC "-//W3C//DTD SVG 1.1//EN"
 "http://www.w3.org/Graphics/SVG/1.1/DTD/svg11.dtd">
<!-- Generated by graphviz version 2.40.1 (20161225.0304)
 -->
<!-- Title: dpu_checkpoint.h Pages: 1 -->
<svg width="217pt" height="140pt"
 viewBox="0.00 0.00 216.50 140.00" xmlns="http://www.w3.org/2000/svg" xmlns:xlink="http://www.w3.org/1999/xlink">
<g id="graph0" class="graph" transform="scale(1 1) rotate(0) translate(4 136)">
<title>dpu_checkpoint.h</title>
<!-- Node0 -->
<g id="node1" class="node">
<title>Node0</title>
<polygon fill="#bfbfbf" stroke="#000000" points="30.5,-112.5 30.5,-131.5 132.5,-131.5 132.5,-112.5 30.5,-112.5"/>
<text text-anchor="middle" x="81.5" y="-119.5" font-family="Helvetica,sans-Serif" font-size="10.00" fill="#000000">dpu_checkpoint.h</text>
</g>
<!-- Node1 -->
<g id="node2" class="node">
<title>Node1</title>
<g id="a_node2"><a xlink:href="dpu__error_8h.html" target="_top" xlink:title="Define the possible status returned by the API functions. ">
<polygon fill="none" stroke="#000000" points="0,-56.5 0,-75.5 71,-75.5 71,-56.5 0,-56.5"/>
<text text-anchor="middle" x="35.5" y="-63.5" font-family="Helvetica,sans-Serif" font-size="10.00" fill="#000000">dpu_error.h</text>
</a>
</g>
</g>
<!-- Node0&#45;&gt;Node1 -->
<g id="edge1" class="edge">
<title>Node0&#45;&gt;Node1</title>
<path fill="none" stroke="#191970" d="M73.4874,-112.2455C67.0232,-104.3761 57.7615,-93.101 50.0017,-83.6542"/>
<polygon fill="#191970" stroke="#191970" points="52.4727,-81.1484 43.4208,-75.6427 47.0636,-85.5916 52.4727,-81.1484"/>
</g>
<!-- Node2 -->
<g id="node3" class="node">
<title>Node2</title>
<g id="a_node3"><a xlink:href="dpu__types_8h.html" target="_top" xlink:title="Base DPU types in the C API. ">
<polygon fill="none" stroke="#000000" points="89.5,-56.5 89.5,-75.5 165.5,-75.5 165.5,-56.5 89.5,-56.5"/>
<text text-anchor="middle" x="127.5" y="-63.5" font-family="Helvetica,sans-Serif" font-size="10.00" fill="#000000">dpu_types.h</text>
</a>
</g>
</g>
<!-- Node0&#45;&gt;Node2 -->
<g id="edge2" class="edge">
<title>Node0&#45;&gt;Node2</title>
<path fill="none" stroke="#191970" d="M89.5126,-112.2455C95.9768,-104.3761 105.2385,-93.101 112.9983,-83.6542"/>
<polygon fill="#191970" stroke="#191970" points="115.9364,-85.5916 119.5792,-75.6427 110.5273,-81.1484 115.9364,-85.5916"/>
</g>
<!-- Node3 -->
<g id="node4" class="node">
<title>Node3</title>
<polygon fill="none" stroke="#bfbfbf" points="59,-.5 59,-19.5 112,-19.5 112,-.5 59,-.5"/>
<text text-anchor="middle" x="85.5" y="-7.5" font-family="Helvetica,sans-Serif" font-size="10.00" fill="#000000">stdint.h</text>
</g>
<!-- Node2&#45;&gt;Node3 -->
<g id="edge3" class="edge">
<title>Node2&#45;&gt;Node3</title>
<path fill="none" stroke="#191970" d="M120.1842,-56.2455C114.2821,-48.3761 105.8258,-37.101 98.7406,-27.6542"/>
<polygon fill="#191970" stroke="#191970" points="101.5321,-25.5427 92.732,-19.6427 95.932,-29.7427 101.5321,-25.5427"/>
</g>
<!-- Node4 -->
<g id="node5" class="node">
<title>Node4</title>
<polygon fill="none" stroke="#bfbfbf" points="130.5,-.5 130.5,-19.5 208.5,-19.5 208.5,-.5 130.5,-.5"/>
<text text-anchor="middle" x="169.5" y="-7.5" font-family="Helvetica,sans-Serif" font-size="10.00" fill="#000000">dpu_target.h</text>
</g>
<!-- Node2&#45;&gt;Node4 -->
<g id="edge4" class="edge">
<title>Node2&#45;&gt;Node4</title>
<path fill="none" stroke="#191970" d="M134.8158,-56.2455C140.7179,-48.3761 149.1742,-37.101 156.2594,-27.6542"/>
<polygon fill="#191970" stroke="#191970" points="159.068,-29.7427 162.268,-19.6427 153.4679,-25.5427 159.068,-29.7427"/>
</g>
</g>
</svg>
