<?xml version="1.0" encoding="UTF-8" standalone="no"?>
<!DOCTYPE svg PUBLIC "-//W3C//DTD SVG 1.1//EN"
 "http://www.w3.org/Graphics/SVG/1.1/DTD/svg11.dtd">
<!-- Generated by graphviz version 2.40.1 (20161225.0304)
 -->
<!-- Title: dpu_elf.h Pages: 1 -->
<svg width="231pt" height="84pt"
 viewBox="0.00 0.00 230.50 84.00" xmlns="http://www.w3.org/2000/svg" xmlns:xlink="http://www.w3.org/1999/xlink">
<g id="graph0" class="graph" transform="scale(1 1) rotate(0) translate(4 80)">
<title>dpu_elf.h</title>
<!-- Node0 -->
<g id="node1" class="node">
<title>Node0</title>
<polygon fill="#bfbfbf" stroke="#000000" points="76.5,-56.5 76.5,-75.5 137.5,-75.5 137.5,-56.5 76.5,-56.5"/>
<text text-anchor="middle" x="107" y="-63.5" font-family="Helvetica,sans-Serif" font-size="10.00" fill="#000000">dpu_elf.h</text>
</g>
<!-- Node1 -->
<g id="node2" class="node">
<title>Node1</title>
<polygon fill="none" stroke="#bfbfbf" points="0,-.5 0,-19.5 62,-19.5 62,-.5 0,-.5"/>
<text text-anchor="middle" x="31" y="-7.5" font-family="Helvetica,sans-Serif" font-size="10.00" fill="#000000">stdbool.h</text>
</g>
<!-- Node0&#45;&gt;Node1 -->
<g id="edge1" class="edge">
<title>Node0&#45;&gt;Node1</title>
<path fill="none" stroke="#191970" d="M93.7618,-56.2455C82.319,-47.814 65.5704,-35.4729 52.2525,-25.6598"/>
<polygon fill="#191970" stroke="#191970" points="54.2133,-22.757 44.0865,-19.6427 50.0609,-28.3924 54.2133,-22.757"/>
</g>
<!-- Node2 -->
<g id="node3" class="node">
<title>Node2</title>
<polygon fill="none" stroke="#bfbfbf" points="80.5,-.5 80.5,-19.5 133.5,-19.5 133.5,-.5 80.5,-.5"/>
<text text-anchor="middle" x="107" y="-7.5" font-family="Helvetica,sans-Serif" font-size="10.00" fill="#000000">stdint.h</text>
</g>
<!-- Node0&#45;&gt;Node2 -->
<g id="edge2" class="edge">
<title>Node0&#45;&gt;Node2</title>
<path fill="none" stroke="#191970" d="M107,-56.2455C107,-48.9382 107,-38.6944 107,-29.7046"/>
<polygon fill="#191970" stroke="#191970" points="110.5001,-29.6426 107,-19.6427 103.5001,-29.6427 110.5001,-29.6426"/>
</g>
<!-- Node3 -->
<g id="node4" class="node">
<title>Node3</title>
<polygon fill="none" stroke="#bfbfbf" points="151.5,-.5 151.5,-19.5 222.5,-19.5 222.5,-.5 151.5,-.5"/>
<text text-anchor="middle" x="187" y="-7.5" font-family="Helvetica,sans-Serif" font-size="10.00" fill="#000000">dpu_error.h</text>
</g>
<!-- Node0&#45;&gt;Node3 -->
<g id="edge3" class="edge">
<title>Node0&#45;&gt;Node3</title>
<path fill="none" stroke="#191970" d="M120.9349,-56.2455C133.0947,-47.7337 150.9464,-35.2375 165.0285,-25.3801"/>
<polygon fill="#191970" stroke="#191970" points="167.0395,-28.2447 173.2248,-19.6427 163.0253,-22.51 167.0395,-28.2447"/>
</g>
</g>
</svg>
