<?xml version="1.0" encoding="UTF-8" standalone="no"?>
<!DOCTYPE svg PUBLIC "-//W3C//DTD SVG 1.1//EN"
 "http://www.w3.org/Graphics/SVG/1.1/DTD/svg11.dtd">
<!-- Generated by graphviz version 2.40.1 (20161225.0304)
 -->
<!-- Title: dpu_program.h Pages: 1 -->
<svg width="314pt" height="140pt"
 viewBox="0.00 0.00 314.00 140.00" xmlns="http://www.w3.org/2000/svg" xmlns:xlink="http://www.w3.org/1999/xlink">
<g id="graph0" class="graph" transform="scale(1 1) rotate(0) translate(4 136)">
<title>dpu_program.h</title>
<!-- Node0 -->
<g id="node1" class="node">
<title>Node0</title>
<polygon fill="#bfbfbf" stroke="#000000" points="98,-112.5 98,-131.5 188,-131.5 188,-112.5 98,-112.5"/>
<text text-anchor="middle" x="143" y="-119.5" font-family="Helvetica,sans-Serif" font-size="10.00" fill="#000000">dpu_program.h</text>
</g>
<!-- Node1 -->
<g id="node2" class="node">
<title>Node1</title>
<polygon fill="none" stroke="#bfbfbf" points="0,-56.5 0,-75.5 56,-75.5 56,-56.5 0,-56.5"/>
<text text-anchor="middle" x="28" y="-63.5" font-family="Helvetica,sans-Serif" font-size="10.00" fill="#000000">stddef.h</text>
</g>
<!-- Node0&#45;&gt;Node1 -->
<g id="edge1" class="edge">
<title>Node0&#45;&gt;Node1</title>
<path fill="none" stroke="#191970" d="M123.2308,-112.3733C104.8531,-103.4241 77.2688,-89.9917 56.5107,-79.8835"/>
<polygon fill="#191970" stroke="#191970" points="58.0343,-76.7325 47.5112,-75.5011 54.9696,-83.026 58.0343,-76.7325"/>
</g>
<!-- Node2 -->
<g id="node3" class="node">
<title>Node2</title>
<polygon fill="none" stroke="#bfbfbf" points="40.5,-.5 40.5,-19.5 93.5,-19.5 93.5,-.5 40.5,-.5"/>
<text text-anchor="middle" x="67" y="-7.5" font-family="Helvetica,sans-Serif" font-size="10.00" fill="#000000">stdint.h</text>
</g>
<!-- Node0&#45;&gt;Node2 -->
<g id="edge2" class="edge">
<title>Node0&#45;&gt;Node2</title>
<path fill="none" stroke="#191970" d="M133.4409,-112.2845C124.8891,-103.3098 112.3038,-89.3816 103,-76 92.5502,-60.9702 82.7452,-42.5993 76.0149,-29.0592"/>
<polygon fill="#191970" stroke="#191970" points="79.0258,-27.2472 71.5078,-19.782 72.7296,-30.3061 79.0258,-27.2472"/>
</g>
<!-- Node3 -->
<g id="node4" class="node">
<title>Node3</title>
<g id="a_node4"><a xlink:href="dpu__elf_8h.html" target="_top" xlink:title="General purpose ELF loader, able to load and map any section. ">
<polygon fill="none" stroke="#000000" points="112.5,-56.5 112.5,-75.5 173.5,-75.5 173.5,-56.5 112.5,-56.5"/>
<text text-anchor="middle" x="143" y="-63.5" font-family="Helvetica,sans-Serif" font-size="10.00" fill="#000000">dpu_elf.h</text>
</a>
</g>
</g>
<!-- Node0&#45;&gt;Node3 -->
<g id="edge3" class="edge">
<title>Node0&#45;&gt;Node3</title>
<path fill="none" stroke="#191970" d="M143,-112.2455C143,-104.9382 143,-94.6944 143,-85.7046"/>
<polygon fill="#191970" stroke="#191970" points="146.5001,-85.6426 143,-75.6427 139.5001,-85.6427 146.5001,-85.6426"/>
</g>
<!-- Node5 -->
<g id="node6" class="node">
<title>Node5</title>
<polygon fill="none" stroke="#bfbfbf" points="192.5,-.5 192.5,-19.5 263.5,-19.5 263.5,-.5 192.5,-.5"/>
<text text-anchor="middle" x="228" y="-7.5" font-family="Helvetica,sans-Serif" font-size="10.00" fill="#000000">dpu_error.h</text>
</g>
<!-- Node0&#45;&gt;Node5 -->
<g id="edge7" class="edge">
<title>Node0&#45;&gt;Node5</title>
<path fill="none" stroke="#191970" d="M151.926,-112.4104C160.2681,-103.2941 172.9157,-89.072 183,-76 194.9968,-60.4487 207.4923,-41.9045 216.263,-28.4383"/>
<polygon fill="#191970" stroke="#191970" points="219.4545,-29.9472 221.9308,-19.6458 213.571,-26.1545 219.4545,-29.9472"/>
</g>
<!-- Node6 -->
<g id="node7" class="node">
<title>Node6</title>
<polygon fill="none" stroke="#bfbfbf" points="230,-56.5 230,-75.5 306,-75.5 306,-56.5 230,-56.5"/>
<text text-anchor="middle" x="268" y="-63.5" font-family="Helvetica,sans-Serif" font-size="10.00" fill="#000000">dpu_types.h</text>
</g>
<!-- Node0&#45;&gt;Node6 -->
<g id="edge8" class="edge">
<title>Node0&#45;&gt;Node6</title>
<path fill="none" stroke="#191970" d="M164.4883,-112.3733C184.644,-103.3435 214.988,-89.7494 237.618,-79.6111"/>
<polygon fill="#191970" stroke="#191970" points="239.0971,-82.7838 246.7921,-75.5011 236.2351,-76.3955 239.0971,-82.7838"/>
</g>
<!-- Node3&#45;&gt;Node2 -->
<g id="edge5" class="edge">
<title>Node3&#45;&gt;Node2</title>
<path fill="none" stroke="#191970" d="M129.7618,-56.2455C118.319,-47.814 101.5704,-35.4729 88.2525,-25.6598"/>
<polygon fill="#191970" stroke="#191970" points="90.2133,-22.757 80.0865,-19.6427 86.0609,-28.3924 90.2133,-22.757"/>
</g>
<!-- Node4 -->
<g id="node5" class="node">
<title>Node4</title>
<polygon fill="none" stroke="#bfbfbf" points="112,-.5 112,-19.5 174,-19.5 174,-.5 112,-.5"/>
<text text-anchor="middle" x="143" y="-7.5" font-family="Helvetica,sans-Serif" font-size="10.00" fill="#000000">stdbool.h</text>
</g>
<!-- Node3&#45;&gt;Node4 -->
<g id="edge4" class="edge">
<title>Node3&#45;&gt;Node4</title>
<path fill="none" stroke="#191970" d="M143,-56.2455C143,-48.9382 143,-38.6944 143,-29.7046"/>
<polygon fill="#191970" stroke="#191970" points="146.5001,-29.6426 143,-19.6427 139.5001,-29.6427 146.5001,-29.6426"/>
</g>
<!-- Node3&#45;&gt;Node5 -->
<g id="edge6" class="edge">
<title>Node3&#45;&gt;Node5</title>
<path fill="none" stroke="#191970" d="M157.8059,-56.2455C170.7256,-47.7337 189.6931,-35.2375 204.6552,-25.3801"/>
<polygon fill="#191970" stroke="#191970" points="206.9387,-28.067 213.3638,-19.6427 203.0876,-22.2216 206.9387,-28.067"/>
</g>
</g>
</svg>
