<?xml version="1.0" encoding="UTF-8" standalone="no"?>
<!DOCTYPE svg PUBLIC "-//W3C//DTD SVG 1.1//EN"
 "http://www.w3.org/Graphics/SVG/1.1/DTD/svg11.dtd">
<!-- Generated by graphviz version 2.40.1 (20161225.0304)
 -->
<!-- Title: dpu_vpd Pages: 1 -->
<svg width="253pt" height="162pt"
 viewBox="0.00 0.00 253.00 162.00" xmlns="http://www.w3.org/2000/svg" xmlns:xlink="http://www.w3.org/1999/xlink">
<g id="graph0" class="graph" transform="scale(1 1) rotate(0) translate(4 158)">
<title>dpu_vpd</title>
<!-- Node1 -->
<g id="node1" class="node">
<title>Node1</title>
<polygon fill="#bfbfbf" stroke="#000000" points="79,-.5 79,-19.5 137,-19.5 137,-.5 79,-.5"/>
<text text-anchor="middle" x="108" y="-7.5" font-family="Helvetica,sans-Serif" font-size="10.00" fill="#000000">dpu_vpd</text>
</g>
<!-- Node2 -->
<g id="node2" class="node">
<title>Node2</title>
<g id="a_node2"><a xlink:href="structdpu__vpd__repair__entry.html" target="_top" xlink:title="Description of a repair entry. ">
<polygon fill="none" stroke="#000000" points="0,-67.5 0,-86.5 122,-86.5 122,-67.5 0,-67.5"/>
<text text-anchor="middle" x="61" y="-74.5" font-family="Helvetica,sans-Serif" font-size="10.00" fill="#000000">dpu_vpd_repair_entry</text>
</a>
</g>
</g>
<!-- Node2&#45;&gt;Node1 -->
<g id="edge1" class="edge">
<title>Node2&#45;&gt;Node1</title>
<path fill="none" stroke="#9a32cd" stroke-dasharray="5,2" d="M68.1166,-57.9264C71.0084,-51.3237 74.692,-44.0641 79,-38 83.8637,-31.1536 90.5398,-24.5733 96.2604,-19.5141"/>
<polygon fill="#9a32cd" stroke="#9a32cd" points="64.7514,-56.9124 64.2482,-67.4953 71.2411,-59.536 64.7514,-56.9124"/>
<text text-anchor="middle" x="114.5" y="-41" font-family="Helvetica,sans-Serif" font-size="10.00" fill="#000000"> repair_entries</text>
</g>
<!-- Node3 -->
<g id="node3" class="node">
<title>Node3</title>
<g id="a_node3"><a xlink:href="structdpu__vpd__header.html" target="_top" xlink:title="UPMEM DIMM Vital Product Data. ">
<polygon fill="none" stroke="#000000" points="140.5,-67.5 140.5,-86.5 237.5,-86.5 237.5,-67.5 140.5,-67.5"/>
<text text-anchor="middle" x="189" y="-74.5" font-family="Helvetica,sans-Serif" font-size="10.00" fill="#000000">dpu_vpd_header</text>
</a>
</g>
</g>
<!-- Node3&#45;&gt;Node1 -->
<g id="edge2" class="edge">
<title>Node3&#45;&gt;Node1</title>
<path fill="none" stroke="#9a32cd" stroke-dasharray="5,2" d="M173.2213,-59.7842C166.3779,-52.7065 158.09,-44.6322 150,-38 141.8674,-31.3329 132.1306,-24.7638 124.0805,-19.6659"/>
<polygon fill="#9a32cd" stroke="#9a32cd" points="171.0838,-62.6187 180.493,-67.4888 176.1745,-57.814 171.0838,-62.6187"/>
<text text-anchor="middle" x="191.5" y="-41" font-family="Helvetica,sans-Serif" font-size="10.00" fill="#000000"> vpd_header</text>
</g>
<!-- Node4 -->
<g id="node4" class="node">
<title>Node4</title>
<g id="a_node4"><a xlink:href="structdpu__vpd__rank__data.html" target="_top" xlink:title="Holds information about DPUs that contain repairs or that are disabled. ">
<polygon fill="none" stroke="#000000" points="133,-134.5 133,-153.5 245,-153.5 245,-134.5 133,-134.5"/>
<text text-anchor="middle" x="189" y="-141.5" font-family="Helvetica,sans-Serif" font-size="10.00" fill="#000000">dpu_vpd_rank_data</text>
</a>
</g>
</g>
<!-- Node4&#45;&gt;Node3 -->
<g id="edge3" class="edge">
<title>Node4&#45;&gt;Node3</title>
<path fill="none" stroke="#9a32cd" stroke-dasharray="5,2" d="M189,-124.1079C189,-111.714 189,-96.3263 189,-86.5817"/>
<polygon fill="#9a32cd" stroke="#9a32cd" points="185.5001,-124.4005 189,-134.4005 192.5001,-124.4006 185.5001,-124.4005"/>
<text text-anchor="middle" x="204.5" y="-108" font-family="Helvetica,sans-Serif" font-size="10.00" fill="#000000"> ranks</text>
</g>
</g>
</svg>
