<?xml version="1.0" encoding="UTF-8" standalone="no"?>
<!DOCTYPE svg PUBLIC "-//W3C//DTD SVG 1.1//EN"
 "http://www.w3.org/Graphics/SVG/1.1/DTD/svg11.dtd">
<!-- Generated by graphviz version 2.40.1 (20161225.0304)
 -->
<!-- Title: dpu_program_t Pages: 1 -->
<svg width="145pt" height="173pt"
 viewBox="0.00 0.00 144.50 173.00" xmlns="http://www.w3.org/2000/svg" xmlns:xlink="http://www.w3.org/1999/xlink">
<g id="graph0" class="graph" transform="scale(1 1) rotate(0) translate(4 169)">
<title>dpu_program_t</title>
<!-- Node1 -->
<g id="node1" class="node">
<title>Node1</title>
<polygon fill="#bfbfbf" stroke="#000000" points="4.5,-.5 4.5,-19.5 94.5,-19.5 94.5,-.5 4.5,-.5"/>
<text text-anchor="middle" x="49.5" y="-7.5" font-family="Helvetica,sans-Serif" font-size="10.00" fill="#000000">dpu_program_t</text>
</g>
<!-- Node2 -->
<g id="node2" class="node">
<title>Node2</title>
<g id="a_node2"><a xlink:href="structdpu__elf__symbols.html" target="_top" xlink:title="A map of symbols. ">
<polygon fill="none" stroke="#000000" points="0,-78.5 0,-97.5 99,-97.5 99,-78.5 0,-78.5"/>
<text text-anchor="middle" x="49.5" y="-85.5" font-family="Helvetica,sans-Serif" font-size="10.00" fill="#000000">dpu_elf_symbols</text>
</a>
</g>
</g>
<!-- Node2&#45;&gt;Node1 -->
<g id="edge1" class="edge">
<title>Node2&#45;&gt;Node1</title>
<path fill="none" stroke="#9a32cd" stroke-dasharray="5,2" d="M49.5,-68.2866C49.5,-52.7395 49.5,-31.7276 49.5,-19.6426"/>
<polygon fill="#9a32cd" stroke="#9a32cd" points="46.0001,-68.4356 49.5,-78.4357 53.0001,-68.4357 46.0001,-68.4356"/>
<text text-anchor="middle" x="93" y="-52" font-family="Helvetica,sans-Serif" font-size="10.00" fill="#000000"> symbols</text>
<text text-anchor="middle" x="93" y="-41" font-family="Helvetica,sans-Serif" font-size="10.00" fill="#000000">profiling_symbols</text>
</g>
<!-- Node3 -->
<g id="node3" class="node">
<title>Node3</title>
<g id="a_node3"><a xlink:href="structdpu__elf__symbol.html" target="_top" xlink:title="Description of one symbol in its section. ">
<polygon fill="none" stroke="#000000" points="2.5,-145.5 2.5,-164.5 96.5,-164.5 96.5,-145.5 2.5,-145.5"/>
<text text-anchor="middle" x="49.5" y="-152.5" font-family="Helvetica,sans-Serif" font-size="10.00" fill="#000000">dpu_elf_symbol</text>
</a>
</g>
</g>
<!-- Node3&#45;&gt;Node2 -->
<g id="edge2" class="edge">
<title>Node3&#45;&gt;Node2</title>
<path fill="none" stroke="#9a32cd" stroke-dasharray="5,2" d="M49.5,-135.1079C49.5,-122.714 49.5,-107.3263 49.5,-97.5817"/>
<polygon fill="#9a32cd" stroke="#9a32cd" points="46.0001,-135.4005 49.5,-145.4005 53.0001,-135.4006 46.0001,-135.4005"/>
<text text-anchor="middle" x="62" y="-119" font-family="Helvetica,sans-Serif" font-size="10.00" fill="#000000"> map</text>
</g>
</g>
</svg>
